<mxfile host="65bd71144e">
    <diagram id="4oWgowSmT_PkriKaydUZ" name="Page-1">
        <mxGraphModel dx="1600" dy="830" grid="1" gridSize="10" guides="1" tooltips="1" connect="1" arrows="1" fold="1" page="1" pageScale="1" pageWidth="850" pageHeight="1100" math="0" shadow="0">
            <root>
                <mxCell id="0"/>
                <mxCell id="1" parent="0"/>
                <mxCell id="34" value="10" style="whiteSpace=wrap;html=1;aspect=fixed;fillStyle=auto;fontSize=36;fillColor=#6a00ff;fontColor=#ffffff;strokeColor=#3700CC;" vertex="1" parent="1">
                    <mxGeometry x="130" y="40" width="140" height="140" as="geometry"/>
                </mxCell>
                <mxCell id="36" value="X" style="whiteSpace=wrap;html=1;aspect=fixed;fillStyle=auto;fontSize=36;fillColor=none;gradientColor=none;" vertex="1" parent="1">
                    <mxGeometry x="100" y="270" width="80" height="80" as="geometry"/>
                </mxCell>
                <mxCell id="37" value="Y" style="whiteSpace=wrap;html=1;aspect=fixed;fillStyle=auto;fontSize=36;fillColor=#60a917;fontColor=#ffffff;strokeColor=#2D7600;" vertex="1" parent="1">
                    <mxGeometry x="230" y="270" width="80" height="80" as="geometry"/>
                </mxCell>
                <UserObject label="Variable" treeRoot="1" id="38">
                    <mxCell style="whiteSpace=wrap;html=1;align=center;treeFolding=1;treeMoving=1;newEdgeStyle={&quot;edgeStyle&quot;:&quot;elbowEdgeStyle&quot;,&quot;startArrow&quot;:&quot;none&quot;,&quot;endArrow&quot;:&quot;none&quot;};fillStyle=auto;fontSize=36;fillColor=#d80073;fontColor=#ffffff;strokeColor=#A50040;" vertex="1" parent="1">
                        <mxGeometry x="80" y="420" width="260" height="60" as="geometry"/>
                    </mxCell>
                </UserObject>
                <mxCell id="39" value="" style="endArrow=none;html=1;fontSize=36;exitX=0.5;exitY=0;exitDx=0;exitDy=0;" edge="1" parent="1">
                    <mxGeometry width="50" height="50" relative="1" as="geometry">
                        <mxPoint x="138" y="270" as="sourcePoint"/>
                        <mxPoint x="200" y="180" as="targetPoint"/>
                    </mxGeometry>
                </mxCell>
                <mxCell id="40" value="" style="endArrow=none;html=1;fontSize=36;exitX=0.5;exitY=0;exitDx=0;exitDy=0;entryX=0.5;entryY=1;entryDx=0;entryDy=0;" edge="1" parent="1" target="34">
                    <mxGeometry width="50" height="50" relative="1" as="geometry">
                        <mxPoint x="267" y="270" as="sourcePoint"/>
                        <mxPoint x="227.625" y="180" as="targetPoint"/>
                    </mxGeometry>
                </mxCell>
                <mxCell id="44" value="" style="shape=link;html=1;fontSize=36;exitX=0.5;exitY=1;exitDx=0;exitDy=0;entryX=0.5;entryY=1;entryDx=0;entryDy=0;" edge="1" parent="1">
                    <mxGeometry width="100" relative="1" as="geometry">
                        <mxPoint x="140" y="350" as="sourcePoint"/>
                        <mxPoint x="270" y="350" as="targetPoint"/>
                        <Array as="points">
                            <mxPoint x="200" y="420"/>
                        </Array>
                    </mxGeometry>
                </mxCell>
                <mxCell id="45" value="&lt;font style=&quot;font-size: 24px;&quot;&gt;To Make &quot;Y&quot; as a Reference Variable use &amp;amp;Y = X;&lt;/font&gt;" style="whiteSpace=wrap;html=1;align=center;verticalAlign=middle;treeFolding=1;treeMoving=1;newEdgeStyle={&quot;edgeStyle&quot;:&quot;elbowEdgeStyle&quot;,&quot;startArrow&quot;:&quot;none&quot;,&quot;endArrow&quot;:&quot;none&quot;};fillStyle=auto;fontSize=36;fillColor=none;gradientColor=none;" vertex="1" parent="1">
                    <mxGeometry x="420" y="120" width="340" height="110" as="geometry"/>
                </mxCell>
                <mxCell id="46" value="" style="edgeStyle=elbowEdgeStyle;elbow=vertical;sourcePerimeterSpacing=0;targetPerimeterSpacing=0;startArrow=none;endArrow=none;rounded=0;curved=0;fontSize=36;" edge="1" target="45" parent="1" source="37">
                    <mxGeometry relative="1" as="geometry">
                        <mxPoint x="520" y="110" as="sourcePoint"/>
                    </mxGeometry>
                </mxCell>
            </root>
        </mxGraphModel>
    </diagram>
</mxfile>